<mxfile host="Electron" agent="Mozilla/5.0 (Macintosh; Intel Mac OS X 10_15_7) AppleWebKit/537.36 (KHTML, like Gecko) draw.io/26.1.1 Chrome/132.0.6834.210 Electron/34.3.3 Safari/537.36" version="26.1.1">
  <diagram name="Page-1" id="PWlflT-2ayEt5tp4bigv">
    <mxGraphModel dx="1114" dy="878" grid="1" gridSize="10" guides="1" tooltips="1" connect="1" arrows="1" fold="1" page="1" pageScale="1" pageWidth="827" pageHeight="1169" math="0" shadow="0">
      <root>
        <mxCell id="0" />
        <mxCell id="1" parent="0" />
        <mxCell id="9D3M5fPNRrOsKCqpm9ar-14" value="" style="endArrow=none;html=1;rounded=0;strokeWidth=2;" edge="1" parent="1">
          <mxGeometry width="50" height="50" relative="1" as="geometry">
            <mxPoint x="480" y="310" as="sourcePoint" />
            <mxPoint x="480" y="80" as="targetPoint" />
          </mxGeometry>
        </mxCell>
        <mxCell id="9D3M5fPNRrOsKCqpm9ar-13" value="" style="endArrow=none;html=1;rounded=0;strokeWidth=2;" edge="1" parent="1">
          <mxGeometry width="50" height="50" relative="1" as="geometry">
            <mxPoint x="300" y="310" as="sourcePoint" />
            <mxPoint x="300" y="80" as="targetPoint" />
          </mxGeometry>
        </mxCell>
        <mxCell id="9D3M5fPNRrOsKCqpm9ar-12" value="" style="endArrow=none;html=1;rounded=0;strokeWidth=2;" edge="1" parent="1">
          <mxGeometry width="50" height="50" relative="1" as="geometry">
            <mxPoint x="99.5" y="310" as="sourcePoint" />
            <mxPoint x="99.5" y="80" as="targetPoint" />
          </mxGeometry>
        </mxCell>
        <mxCell id="9D3M5fPNRrOsKCqpm9ar-1" value="" style="rounded=1;whiteSpace=wrap;html=1;fillColor=#f5f5f5;fontColor=#333333;strokeColor=#666666;" vertex="1" parent="1">
          <mxGeometry x="320" y="390" width="200" height="70" as="geometry" />
        </mxCell>
        <mxCell id="9D3M5fPNRrOsKCqpm9ar-2" value="쇼핑 카트가&lt;div&gt;초기화됨&lt;/div&gt;" style="whiteSpace=wrap;html=1;aspect=fixed;fillColor=#ffe6cc;strokeColor=#d79b00;" vertex="1" parent="1">
          <mxGeometry x="70" y="160" width="60" height="60" as="geometry" />
        </mxCell>
        <mxCell id="9D3M5fPNRrOsKCqpm9ar-3" value="주문을&lt;div&gt;생성함&lt;/div&gt;" style="whiteSpace=wrap;html=1;aspect=fixed;fillColor=#ffe6cc;strokeColor=#d79b00;" vertex="1" parent="1">
          <mxGeometry x="270" y="160" width="60" height="60" as="geometry" />
        </mxCell>
        <mxCell id="9D3M5fPNRrOsKCqpm9ar-4" value="..." style="whiteSpace=wrap;html=1;aspect=fixed;fillColor=#ffe6cc;strokeColor=#d79b00;" vertex="1" parent="1">
          <mxGeometry x="170" y="200" width="60" height="60" as="geometry" />
        </mxCell>
        <mxCell id="9D3M5fPNRrOsKCqpm9ar-5" value="이벤트" style="whiteSpace=wrap;html=1;aspect=fixed;fillColor=#ffe6cc;strokeColor=#d79b00;" vertex="1" parent="1">
          <mxGeometry x="340" y="405" width="40" height="40" as="geometry" />
        </mxCell>
        <mxCell id="9D3M5fPNRrOsKCqpm9ar-6" value="주문이 발송됨" style="whiteSpace=wrap;html=1;aspect=fixed;fillColor=#ffe6cc;strokeColor=#d79b00;" vertex="1" parent="1">
          <mxGeometry x="450" y="160" width="60" height="60" as="geometry" />
        </mxCell>
        <mxCell id="9D3M5fPNRrOsKCqpm9ar-7" value="..." style="whiteSpace=wrap;html=1;aspect=fixed;fillColor=#ffe6cc;strokeColor=#d79b00;" vertex="1" parent="1">
          <mxGeometry x="360" y="120" width="60" height="60" as="geometry" />
        </mxCell>
        <mxCell id="9D3M5fPNRrOsKCqpm9ar-10" value="" style="whiteSpace=wrap;html=1;aspect=fixed;fillColor=#d80073;strokeColor=#A50040;rotation=45;fontColor=#ffffff;" vertex="1" parent="1">
          <mxGeometry x="410" y="405" width="40" height="40" as="geometry" />
        </mxCell>
        <mxCell id="9D3M5fPNRrOsKCqpm9ar-11" value="고충점" style="text;html=1;align=center;verticalAlign=middle;whiteSpace=wrap;rounded=0;fontColor=#FFFFFF;" vertex="1" parent="1">
          <mxGeometry x="400" y="410" width="60" height="30" as="geometry" />
        </mxCell>
      </root>
    </mxGraphModel>
  </diagram>
</mxfile>
